<svg width="216" height="218" viewBox="0 0 216 218" fill="none" xmlns="http://www.w3.org/2000/svg">
<rect y="1" width="216" height="216" rx="8" fill="#F6F7F9"/>
<rect width="216" height="218" rx="6.59091" fill="#D5D9DE"/>
<rect x="21.8428" y="23.0112" width="172.315" height="171.978" rx="3.95455" fill="white"/>
<path d="M114.076 135.31C114.449 135.738 114.15 136.409 113.586 136.409L48.113 136.309C47.5482 136.308 47.2461 135.634 47.6193 135.207L80.363 97.7312C80.6238 97.4327 81.0855 97.4341 81.3468 97.7341L114.076 135.31Z" fill="#D9DFE5"/>
<path d="M170.628 135.344C171.001 135.772 170.703 136.444 170.138 136.443L74.5856 136.372C74.0203 136.372 73.7179 135.697 74.0916 135.27L121.898 80.6185C122.159 80.3205 122.62 80.3218 122.882 80.6213L170.628 135.344Z" fill="#A9B2BE"/>
<path d="M64.5836 81.1436C70.4817 85.189 78.508 83.6251 82.5107 77.6507C86.5135 71.6763 84.977 63.5537 79.0789 59.5083C73.1808 55.463 65.1545 57.0268 61.1518 63.0013C57.149 68.9757 58.6855 77.0983 64.5836 81.1436Z" fill="#A9B2BE"/>
</svg>
