<svg xmlns="http://www.w3.org/2000/svg" xmlns:xlink="http://www.w3.org/1999/xlink" width="150" zoomAndPan="magnify" viewBox="0 0 112.5 112.499997" height="150" preserveAspectRatio="xMidYMid meet" version="1.0"><defs><clipPath id="38d14cf9cb"><path d="M 22.707031 19 L 81 19 L 81 99.449219 L 22.707031 99.449219 Z M 22.707031 19 " clip-rule="nonzero"/></clipPath><clipPath id="09e77c23d5"><path d="M 74 16 L 89.160156 16 L 89.160156 46 L 74 46 Z M 74 16 " clip-rule="nonzero"/></clipPath><clipPath id="468b448819"><path d="M 23 12.832031 L 84 12.832031 L 84 29 L 23 29 Z M 23 12.832031 " clip-rule="nonzero"/></clipPath><clipPath id="b39cbc5da8"><path d="M 67 12.832031 L 84 12.832031 L 84 29 L 67 29 Z M 67 12.832031 " clip-rule="nonzero"/></clipPath><clipPath id="fc0746b4aa"><path d="M 80 36 L 89.160156 36 L 89.160156 99.449219 L 80 99.449219 Z M 80 36 " clip-rule="nonzero"/></clipPath><clipPath id="8e9239ba2c"><path d="M 32 52 L 71 52 L 71 88 L 32 88 Z M 32 52 " clip-rule="nonzero"/></clipPath><clipPath id="551c34530a"><path d="M 29.953125 55.691406 L 70.871094 52.195312 L 73.730469 85.675781 L 32.8125 89.167969 Z M 29.953125 55.691406 " clip-rule="nonzero"/></clipPath><clipPath id="6ff45df006"><path d="M 29.953125 55.691406 L 70.871094 52.195312 L 73.730469 85.675781 L 32.8125 89.167969 Z M 29.953125 55.691406 " clip-rule="nonzero"/></clipPath><clipPath id="2dff9816c6"><path d="M 29.96875 55.6875 L 70.71875 52.207031 L 73.574219 85.65625 L 32.824219 89.136719 Z M 29.96875 55.6875 " clip-rule="nonzero"/></clipPath><clipPath id="6a13773eda"><path d="M 29.96875 55.6875 L 70.71875 52.207031 L 73.574219 85.652344 L 32.824219 89.132812 Z M 29.96875 55.6875 " clip-rule="nonzero"/></clipPath></defs><g clip-path="url(#38d14cf9cb)"><path fill="#e8a76f" d="M 74.394531 19.234375 L 30.757812 19.234375 L 22.78125 45.804688 L 22.78125 99.441406 L 80.378906 99.441406 L 80.378906 45.804688 L 74.394531 19.234375 " fill-opacity="1" fill-rule="nonzero"/></g><g clip-path="url(#09e77c23d5)"><path fill="#bc8659" d="M 77.320312 16.292969 L 89.0625 36.78125 L 80.378906 45.804688 L 74.394531 19.234375 L 77.320312 16.292969 " fill-opacity="1" fill-rule="nonzero"/></g><path fill="#d29664" d="M 78.007812 35.277344 L 25.953125 35.277344 L 29.980469 21.867188 L 74.988281 21.867188 L 78.007812 35.277344 " fill-opacity="1" fill-rule="nonzero"/><path fill="#ab7950" d="M 78.019531 35.277344 L 78.007812 35.277344 L 74.988281 21.867188 L 75 21.867188 L 78.019531 35.277344 " fill-opacity="1" fill-rule="nonzero"/><g clip-path="url(#468b448819)"><path fill="#e8a76f" d="M 83.085938 20.695312 C 83.085938 24.980469 79.625 28.460938 75.359375 28.460938 L 28.011719 28.460938 C 26.265625 28.460938 23.523438 24.980469 23.523438 20.695312 C 23.523438 16.40625 26.140625 12.929688 28.011719 12.929688 L 75.359375 12.929688 C 79.625 12.929688 83.085938 16.40625 83.085938 20.695312 " fill-opacity="1" fill-rule="nonzero"/></g><g clip-path="url(#b39cbc5da8)"><path fill="#c68a55" d="M 83.085938 20.648438 C 83.085938 24.964844 79.609375 28.460938 75.316406 28.460938 C 71.023438 28.460938 67.546875 24.964844 67.546875 20.648438 C 67.546875 16.335938 71.023438 12.839844 75.316406 12.839844 C 79.609375 12.839844 83.085938 16.335938 83.085938 20.648438 " fill-opacity="1" fill-rule="nonzero"/></g><path fill="#895e3a" d="M 68.53125 23.871094 C 69.703125 25.445312 71.46875 26.460938 73.304688 26.648438 C 75.125 26.875 77.007812 26.257812 78.296875 25.085938 C 78.925781 24.492188 79.382812 23.734375 79.640625 22.921875 C 79.890625 22.105469 79.917969 21.226562 79.726562 20.40625 C 79.625 19.996094 79.488281 19.597656 79.289062 19.226562 C 79.1875 19.03125 79.09375 18.875 78.960938 18.6875 C 78.859375 18.546875 78.714844 18.375 78.574219 18.238281 C 78.007812 17.671875 77.246094 17.3125 76.453125 17.222656 C 75.660156 17.121094 74.839844 17.289062 74.152344 17.703125 C 73.488281 18.089844 73.019531 18.757812 72.851562 19.511719 C 72.675781 20.257812 72.835938 21.089844 73.277344 21.722656 C 73.695312 22.316406 74.453125 22.679688 75.210938 22.621094 C 75.582031 22.597656 75.96875 22.464844 76.277344 22.25 C 76.570312 22.046875 76.800781 21.734375 76.921875 21.378906 C 77.179688 20.679688 76.894531 19.730469 76.21875 19.386719 C 75.5625 19 74.488281 19.277344 74.257812 20.109375 C 74.136719 20.5 74.226562 20.992188 74.53125 21.308594 C 74.832031 21.628906 75.375 21.738281 75.8125 21.507812 C 75.421875 21.808594 74.808594 21.820312 74.371094 21.492188 C 73.941406 21.152344 73.742188 20.574219 73.828125 20.011719 C 73.902344 19.449219 74.320312 18.941406 74.847656 18.714844 C 75.363281 18.46875 75.992188 18.445312 76.546875 18.667969 C 77.695312 19.148438 78.210938 20.492188 77.929688 21.660156 C 77.796875 22.246094 77.453125 22.789062 76.972656 23.175781 C 76.5 23.550781 75.945312 23.78125 75.355469 23.867188 C 74.171875 24.046875 72.902344 23.550781 72.15625 22.5625 C 71.4375 21.621094 71.144531 20.378906 71.371094 19.207031 C 71.578125 18.039062 72.328125 16.96875 73.34375 16.359375 C 74.316406 15.757812 75.503906 15.488281 76.644531 15.628906 C 77.785156 15.773438 78.875 16.308594 79.679688 17.132812 C 79.882812 17.339844 80.058594 17.542969 80.238281 17.804688 C 80.382812 18.011719 80.542969 18.273438 80.660156 18.515625 C 80.914062 19.011719 81.097656 19.542969 81.203125 20.089844 C 81.640625 22.277344 80.820312 24.65625 79.113281 26.027344 C 77.425781 27.394531 75.191406 27.859375 73.175781 27.421875 C 71.160156 26.992188 69.402344 25.636719 68.53125 23.871094 " fill-opacity="1" fill-rule="nonzero"/><g clip-path="url(#fc0746b4aa)"><path fill="#bc8659" d="M 80.378906 45.804688 L 89.0625 36.78125 L 89.0625 89.917969 L 80.378906 99.441406 L 80.378906 45.804688 " fill-opacity="1" fill-rule="nonzero"/></g><g clip-path="url(#8e9239ba2c)"><g clip-path="url(#551c34530a)"><g clip-path="url(#6ff45df006)"><g clip-path="url(#2dff9816c6)"><g clip-path="url(#6a13773eda)"><path fill="#ffde59" d="M 70.71875 52.207031 C 70.558594 59.710938 62.578125 69.363281 56.605469 73.644531 C 50.777344 77.824219 43.695312 80.121094 37.058594 78.15625 C 36.410156 78.78125 35.042969 80.328125 33.132812 84.957031 C 35.320312 82.648438 40.769531 80.207031 45.40625 80.296875 C 51.667969 80.417969 57.675781 83.539062 62.195312 82.039062 C 57.605469 83.355469 50.679688 79.277344 43.378906 79.460938 C 46.882812 79.222656 50.285156 78.070312 53.363281 76.414062 C 59.011719 77.871094 62.023438 81.832031 66.90625 80.398438 C 64.367188 84.164062 59.152344 86.363281 54.160156 87.21875 C 48.453125 88.195312 41.761719 87.378906 37.921875 83.003906 C 37.386719 83 34.71875 83.9375 32.542969 85.859375 C 34.230469 78.183594 38.097656 72.191406 45.15625 68.296875 C 52.789062 64.082031 61.972656 63.074219 66.1875 57.925781 C 59.125 64.867188 41.90625 63.59375 35.046875 76.128906 C 34.285156 72.75 34.570312 69.90625 35.609375 67.523438 C 38.394531 61.15625 46.097656 58.582031 52.449219 57.621094 C 59.269531 56.585938 65.269531 56.570312 70.71875 52.207031 " fill-opacity="1" fill-rule="nonzero"/></g></g></g></g></g></svg>