<svg xmlns="http://www.w3.org/2000/svg" width="80" height="80" viewBox="0 -32 576 576"><path fill="rgb(247, 219, 9)" d="M288 0c-70 0-126 56-126 126 0 56 82 159 114 196 6 8 18 8 24 0 32-37 114-140 114-196C414 56 358 0 288 0zm0 168a42 42 0 1 1 0-84 42 42 0 0 1 0 84zM20 216a32 32 0 0 0-20 30v250c0 11 11 19 22 15l138-63V215c-9-16-16-32-21-47L20 217zm268 144c-14 0-27-7-37-17-19-23-40-50-59-77v182l192 64V266c-19 27-40 54-59 77-10 10-23 17-37 17zm266-199-138 63v288l140-56a32 32 0 0 0 20-30V176c0-11-11-19-22-15z"/></svg>