<svg height="800" width="800" xmlns="http://www.w3.org/2000/svg" viewBox="0 0 473.8 473.8" xml:space="preserve"><path d="M374 294a47 47 0 0 0-33-16c-13 0-24 5-35 15l-31 32-8-4-10-5a343 343 0 0 1-109-118l23-23 9-8c21-21 21-48 0-69l-28-28-9-9-19-19c-10-9-21-15-33-15s-24 6-34 15h-1L22 77a73 73 0 0 0-21 46c-3 29 6 57 13 74a471 471 0 0 0 233 250 244 244 0 0 0 94 27c23 0 43-8 58-25 5-7 11-12 18-19l13-12c10-11 15-23 15-35s-6-24-16-34l-55-55zm36 105-12 12-19 20a48 48 0 0 1-38 16h-4c-30-2-58-14-78-24A444 444 0 0 1 39 188c-9-25-13-44-11-63 1-11 5-21 14-29l34-34c5-5 10-8 15-8 6 0 11 4 14 7l1 1 18 18 9 9 28 28c10 10 10 20 0 31l-9 8-25 25h-1c-8 9-7 17-5 23v1c8 17 18 33 33 52v1a367 367 0 0 0 111 92l1 1c3 2 7 3 10 3 8 0 13-6 15-7l34-35c4-3 9-7 15-7 7 0 12 4 15 7l55 56c10 10 10 20 0 31zM256 113c26 4 50 17 69 36s31 42 36 69c1 6 7 11 13 11h2c8-2 13-9 12-16A154 154 0 0 0 261 86c-8-1-15 4-16 11s4 15 11 16z"/><path d="M473 209A254 254 0 0 0 264 0a13 13 0 1 0-4 27 227 227 0 0 1 187 186c1 7 6 12 13 12l2-1c8-1 13-8 11-15z"/></svg>