<svg xmlns="http://www.w3.org/2000/svg" width="40" viewBox="0 0 30 30" height="40" version="1.0"><defs><clipPath id="a"><path d="M.813.117h28.37v28.371H.814zm0 0"/></clipPath><clipPath id="b"><path d="M15 .117C7.164.117.812 6.47.812 14.305c0 7.832 6.352 14.183 14.188 14.183 7.832 0 14.184-6.351 14.184-14.183C29.184 6.469 22.832.117 15 .117zm0 0"/></clipPath><clipPath id="c"><path d="M.484 0H29v29H.484zm0 0"/></clipPath><clipPath id="d"><path d="M.973 29.11.148.09l28.297-.8.82 29.019zm0 0"/></clipPath><clipPath id="e"><path d="M.973 29.11.148.09l28.297-.8.82 29.019zm0 0"/></clipPath><clipPath id="f"><path d="M.973 29.11.148.09l28.297-.8.82 29.019zm0 0"/></clipPath><clipPath id="g"><path d="M12.266-.016c-.43.075-.856.168-1.274.278-1.738.324-3.523.847-4.945 1.949-.684.531-1.371 1.144-1.914 1.824a8.546 8.546 0 0 0-.653.953c-.726.84-1.367 1.754-1.828 2.754-.382.824-.73 1.723-.925 2.61-.204.93-.235 1.89-.153 2.832.035.39.102.773.184 1.156.039.89.183 1.773.453 2.625.05.277.105.555.176.824.218.883.617 1.73 1.023 2.543.422.84.926 1.625 1.504 2.363 1.063 1.348 2.285 2.555 3.742 3.457 1.39.868 2.934 1.461 4.524 1.813 1.82.402 3.695.71 5.55.348.918-.18 1.778-.516 2.63-.899.824-.375 1.624-.773 2.34-1.336a11.578 11.578 0 0 0 1.519-1.445 8.143 8.143 0 0 0 1.457-1.707c.258-.395.508-.793.707-1.223.004-.008.008-.012.008-.02.398-.706.672-1.48.972-2.234.34-.86.621-1.75.825-2.656.417-1.852.64-3.887.203-5.758a5.795 5.795 0 0 0-.262-.812 6.707 6.707 0 0 0-.309-1.196 6.975 6.975 0 0 0-.445-.949c-.078-.402-.184-.797-.281-1.195-.047-.184-.324-.098-.278.086.024.11.051.215.079.324a21.81 21.81 0 0 0-.446-.664 23.566 23.566 0 0 0-1.648-2.176c-.336-.394-.746-.73-1.172-1.047a11.222 11.222 0 0 0-1.723-1.582C21.156 1.277 20.36.934 19.5.61a11.853 11.853 0 0 0-2.79-.691c-.226-.027-.452-.05-.683-.066a12.058 12.058 0 0 0-.972-.098c-.93-.05-1.875.062-2.79.23zm5.605.559c.883.273 1.715.691 2.535 1.125.742.395 1.504.777 2.168 1.305.274.218.563.425.848.636.742.836 1.383 1.766 2.008 2.704.535.8 1.082 1.593 1.574 2.421.07.118.14.235.21.356.016.207.036.414.063.62.118.95.368 1.868.446 2.825.054.668.074 1.336.043 2.004-.016.106-.032.211-.051.313-.152.902-.352 1.793-.527 2.691-.133.668-.27 1.328-.438 1.984-.5.942-1.18 1.79-1.91 2.551a22.835 22.835 0 0 1-1.781 1.64c-.672.567-1.375 1.11-2.153 1.52-.824.438-1.718.746-2.629.942-.945.199-1.93.238-2.89.304-.922.063-1.856.012-2.774-.101-.902-.113-1.808-.274-2.668-.59-.843-.309-1.66-.77-2.437-1.223a13.606 13.606 0 0 1-1.055-.691 16.722 16.722 0 0 1-3.101-3.348 33.25 33.25 0 0 1-1.012-1.824c-.438-.863-.652-1.84-.899-2.777-.03-.114-.062-.223-.09-.336a8.91 8.91 0 0 1-.011-.645c.015-.937.195-1.86.324-2.781.027-.188-.254-.258-.281-.07-.113.8-.262 1.597-.317 2.406l-.023-.102c-.047-.922.02-1.851.176-2.754.152-.886.375-1.78.68-2.628.312-.875.757-1.704 1.144-2.547.223-.489.469-.985.754-1.453.457-.52.945-1.008 1.45-1.461.64-.59 1.374-1.067 2.128-1.493.746-.418 1.516-.808 2.316-1.109.375-.14.754-.262 1.137-.367.14-.027.281-.055.422-.078 1.66-.297 3.371-.48 5.055-.336.535.09 1.062.21 1.566.367zm10.117 11.715c-.09-.844-.304-1.668-.414-2.508.11.223.215.45.301.684.098.597.129 1.21.113 1.824zm-2.117 9.68c-.57.867-1.191 1.726-1.89 2.503a4.508 4.508 0 0 1-.297.247c-.672.527-1.426.964-2.172 1.367-.793.422-1.617.68-2.48.902-.946.246-1.895.43-2.876.45a13.63 13.63 0 0 1-2.902-.235c-.848-.164-1.688-.461-2.5-.758a13.248 13.248 0 0 1-.77-.316c.868.304 1.778.46 2.68.57.945.113 1.899.164 2.844.094.953-.07 1.914-.106 2.851-.305a10.313 10.313 0 0 0 2.653-.937c.804-.418 1.527-.973 2.222-1.555a23.41 23.41 0 0 0 1.864-1.711c.488-.508.949-1.059 1.351-1.645-.078.27-.16.54-.27.797a6.05 6.05 0 0 1-.308.532zM7.824 1.488c-.617.32-1.222.68-1.785 1.086a8.146 8.146 0 0 1 1.785-1.086zM1.95 7.715c.25-.52.555-1.016.89-1.492l-.097.215c-.379.859-.832 1.68-1.144 2.566A15.702 15.702 0 0 0 .8 12.633c-.051-1.723.39-3.367 1.148-4.918zm18.07 19.527c-.78.352-1.59.637-2.43.797-1.812.336-3.663.012-5.437-.39a14.015 14.015 0 0 1-4.437-1.813c-1.418-.902-2.617-2.102-3.645-3.438a13.92 13.92 0 0 1-1.406-2.23c-.129-.258-.258-.52-.379-.785l.285.508c.211.359.453.707.707 1.043l.164.27c.477.769 1.082 1.394 1.747 1.995.253.23.519.45.789.66a16.359 16.359 0 0 0 2.304 1.684c.781.469 1.598.879 2.453 1.187.883.32 1.797.649 2.727.786.969.148 1.96.226 2.941.187.961-.043 1.899-.242 2.832-.484.887-.235 1.72-.52 2.532-.961.246-.133.488-.27.73-.41a1.272 1.272 0 0 1-.086.066c-.73.566-1.558.95-2.39 1.328zm7.864-10.531c.047-.473.074-.953.125-1.426.023-.223.039-.45.05-.672.122-.765.204-1.539.215-2.312.133 1.469-.066 2.992-.39 4.41zM26.27 6.879c.277.426.574.863.832 1.316.007.028.011.055.015.082l.012.075c-.5-.813-1.05-1.594-1.578-2.391-.188-.29-.383-.578-.582-.86.457.57.902 1.172 1.3 1.778zm-4.434-4.742c-.473-.285-.965-.535-1.45-.79-.222-.117-.445-.23-.667-.34.758.298 1.453.634 2.117 1.13zm0 0"/></clipPath><clipPath id="i"><path d="M1 0h28.516v29H1zm0 0"/></clipPath><clipPath id="j"><path d="M-3.684 20.957 8.63-4.535 34.117 7.777 21.81 33.266zm0 0"/></clipPath><clipPath id="k"><path d="M-3.738 21.07 8.574-4.418 34.063 7.895 21.75 33.383zm0 0"/></clipPath><clipPath id="l"><path d="M-3.738 21.07 8.574-4.418 34.063 7.895 21.75 33.383zm0 0"/></clipPath><clipPath id="m"><path d="M19.383 1.055A17.06 17.06 0 0 0 18.125.71c-1.684-.516-3.508-.887-5.266-.586-.847.145-1.73.36-2.523.7-.344.148-.68.327-1.004.527-1.023.39-2.004.89-2.863 1.543-.707.535-1.422 1.152-1.992 1.832-.598.71-1.059 1.527-1.41 2.382a8.76 8.76 0 0 0-.356 1.082 9.54 9.54 0 0 0-.777 2.48c-.082.267-.157.532-.215.794-.203.867-.23 1.785-.235 2.672-.004.922.094 1.836.274 2.738.336 1.656.883 3.262 1.765 4.715.848 1.387 1.954 2.61 3.207 3.644 1.434 1.188 2.961 2.317 4.77 2.856.898.265 1.813.37 2.742.426.899.058 1.785.082 2.676-.078a11.555 11.555 0 0 0 2-.551 8.208 8.208 0 0 0 2.062-.809c.407-.223.81-.453 1.176-.734l.02-.012c.668-.43 1.258-.973 1.863-1.488.691-.586 1.34-1.23 1.93-1.918 1.203-1.41 2.316-3.074 2.765-4.89.07-.274.11-.548.133-.829.125-.383.219-.777.266-1.172.039-.336.043-.68.031-1.027.11-.383.195-.778.285-1.164.043-.18-.242-.235-.285-.055-.023.106-.05.211-.074.32a23.94 23.94 0 0 0-.098-.785 23.343 23.343 0 0 0-.484-2.636c-.125-.497-.336-.977-.57-1.446a11.157 11.157 0 0 0-.82-2.164c-.419-.816-.973-1.48-1.59-2.156a12.256 12.256 0 0 0-2.743-2.25c-.27-.192-.547-.371-.82-.531-.805-.473-1.695-.809-2.582-1.086zm4.726 3.062c.664.64 1.215 1.387 1.746 2.137.485.684.989 1.363 1.34 2.129.145.312.309.625.465.941.285 1.063.434 2.16.57 3.258.114.941.243 1.879.31 2.824.01.133.019.266.026.403-.078.187-.156.375-.222.566-.32.875-.516 1.785-.875 2.652-.25.602-.535 1.188-.864 1.75-.062.086-.12.168-.183.25-.543.707-1.121 1.391-1.68 2.086a39.66 39.66 0 0 1-1.277 1.516c-.867.586-1.856 1.008-2.848 1.332a23.44 23.44 0 0 1-2.316.602c-.856.18-1.723.328-2.598.324-.93 0-1.86-.145-2.758-.395-.93-.262-1.82-.68-2.703-1.062a14.97 14.97 0 0 1-2.414-1.364c-.754-.511-1.488-1.066-2.11-1.738-.609-.656-1.128-1.43-1.613-2.18a12.95 12.95 0 0 1-.625-1.082 16.398 16.398 0 0 1-1.25-4.32 29.867 29.867 0 0 1-.078-2.047c0-.949.246-1.894.45-2.816l.07-.332c.09-.192.18-.383.281-.567.434-.8 1.008-1.515 1.54-2.254.105-.148-.11-.34-.22-.19-.457.64-.949 1.26-1.363 1.937l.024-.098c.375-.82.851-1.598 1.394-2.305A15.47 15.47 0 0 1 6.113 4.11c.672-.613 1.442-1.12 2.16-1.675.418-.32.864-.637 1.325-.914.64-.235 1.293-.434 1.945-.598.832-.211 1.7-.29 2.559-.309.851-.023 1.71-.008 2.558.102.395.05.785.12 1.176.207.137.039.273.082.41.125 1.606.504 3.207 1.133 4.64 2.031.434.324.848.672 1.223 1.04zm3.72 14.79c.3-.774.48-1.583.757-2.364a7.7 7.7 0 0 1-.035.734 9.586 9.586 0 0 1-.723 1.63zm-6.231 7.405c-.899.489-1.832.946-2.805 1.297-.125.032-.25.059-.375.078-.832.149-1.7.18-2.543.184-.895 0-1.738-.152-2.61-.36-.949-.222-1.874-.495-2.753-.929a14.004 14.004 0 0 1-2.473-1.539c-.68-.535-1.293-1.176-1.879-1.805-.187-.203-.367-.41-.539-.625.629.66 1.367 1.211 2.121 1.723.79.531 1.61 1.016 2.485 1.387.875.379 1.746.789 2.668 1.05.902.254 1.84.395 2.777.407.902.008 1.793-.14 2.672-.325.82-.171 1.629-.367 2.422-.625.664-.218 1.32-.48 1.945-.804a6.92 6.92 0 0 1-.602.57 6.206 6.206 0 0 1-.511.317zM14.766.317a14.086 14.086 0 0 0-2.075.121 8.202 8.202 0 0 1 2.074-.121zm-8.02 2.688c.457-.332.95-.621 1.461-.879l-.184.14c-.722.567-1.492 1.07-2.168 1.696a14.804 14.804 0 0 0-2.34 2.773C4.243 5.22 5.376 4 6.747 3.004zm7.27 25.207a10.799 10.799 0 0 1-2.516-.426c-1.762-.539-3.258-1.672-4.656-2.836a14.243 14.243 0 0 1-3.125-3.61c-.856-1.429-1.38-3.023-1.692-4.651a13.523 13.523 0 0 1-.242-2.575c0-.281.004-.566.016-.851.004.187.012.375.023.566.024.41.082.824.16 1.23l.024.31c.078.882.336 1.702.656 2.527.121.316.254.628.402.933.356.871.786 1.711 1.29 2.52A14.426 14.426 0 0 0 6 23.504c.64.68 1.305 1.387 2.066 1.933.797.57 1.641 1.098 2.532 1.512.87.406 1.797.664 2.73.883.895.207 1.762.344 2.68.332.277 0 .555-.008.836-.02a1.07 1.07 0 0 1-.11.02c-.902.152-1.808.106-2.718.047zm11.718-5.496c.254-.39.496-.793.75-1.18.121-.183.239-.367.348-.558.453-.606.875-1.239 1.23-1.903-.542 1.332-1.406 2.563-2.328 3.64zm2.985-9.254c.058.496.125 1.012.148 1.523l-.023.079c-.008.023-.016.046-.02.07-.082-.938-.219-1.863-.328-2.797-.039-.34-.082-.676-.133-1.012.153.703.274 1.43.356 2.137zm-1.801-6.145c-.293-.46-.621-.906-.938-1.347-.14-.203-.289-.403-.437-.602.539.606 1.004 1.219 1.375 1.95zm0 0"/></clipPath><clipPath id="o"><path d="M9 2h11v8H9zm0 0"/></clipPath><clipPath id="p"><path d="m6.125 5.324 10.11-7.074 7.492 10.7-10.106 7.077zm0 0"/></clipPath><clipPath id="q"><path d="m6.125 5.324 10.11-7.074 7.492 10.7-10.106 7.077zm0 0"/></clipPath><clipPath id="r"><path d="M9 3h6v3H9zm0 0"/></clipPath><clipPath id="s"><path d="m6.125 5.324 10.11-7.074 7.492 10.7-10.106 7.077zm0 0"/></clipPath><clipPath id="t"><path d="m6.125 5.324 10.11-7.074 7.492 10.7-10.106 7.077zm0 0"/></clipPath><clipPath id="u"><path d="M8 4h15v10H8zm0 0"/></clipPath><clipPath id="v"><path d="m6.125 5.324 10.11-7.074 7.492 10.7-10.106 7.077zm0 0"/></clipPath><clipPath id="w"><path d="m6.125 5.324 10.11-7.074 7.492 10.7-10.106 7.077zm0 0"/></clipPath><clipPath id="x"><path d="M6.402 5.719 16.52-1.367l7.222 10.316-10.117 7.086zm0 0"/></clipPath><clipPath id="y"><path d="M6.402 5.719 16.508-1.36l7.215 10.308-10.106 7.074zm0 0"/></clipPath><linearGradient x1="-3.74" gradientTransform="matrix(-.00163 -.05751 .05659 -.0016 .551 29.261)" y1="256" x2="508.388" gradientUnits="userSpaceOnUse" y2="256" id="h"><stop stop-color="#B3833B" offset="0"/><stop stop-color="#B3833B" offset=".016"/><stop stop-color="#B4843C" offset=".02"/><stop stop-color="#B5853D" offset=".023"/><stop stop-color="#B68740" offset=".027"/><stop stop-color="#B78942" offset=".031"/><stop stop-color="#B98C44" offset=".035"/><stop stop-color="#BA8E47" offset=".039"/><stop stop-color="#BB9049" offset=".043"/><stop stop-color="#BD924B" offset=".047"/><stop stop-color="#BE944D" offset=".051"/><stop stop-color="#BF9650" offset=".055"/><stop stop-color="#C19852" offset=".059"/><stop stop-color="#C29A54" offset=".063"/><stop stop-color="#C39C56" offset=".066"/><stop stop-color="#C59E59" offset=".07"/><stop stop-color="#C6A05B" offset=".074"/><stop stop-color="#C8A25D" offset=".078"/><stop stop-color="#C9A45F" offset=".082"/><stop stop-color="#CAA662" offset=".086"/><stop stop-color="#CCA864" offset=".09"/><stop stop-color="#CDAA66" offset=".094"/><stop stop-color="#CEAC68" offset=".098"/><stop stop-color="#D0AE6B" offset=".102"/><stop stop-color="#D1B16D" offset=".105"/><stop stop-color="#D2B36F" offset=".109"/><stop stop-color="#D4B571" offset=".113"/><stop stop-color="#D5B774" offset=".117"/><stop stop-color="#D6B976" offset=".121"/><stop stop-color="#D8BB78" offset=".125"/><stop stop-color="#D9BD7A" offset=".129"/><stop stop-color="#DBBF7D" offset=".133"/><stop stop-color="#DCC17F" offset=".137"/><stop stop-color="#DDC381" offset=".141"/><stop stop-color="#DFC584" offset=".145"/><stop stop-color="#E0C786" offset=".148"/><stop stop-color="#E1C988" offset=".152"/><stop stop-color="#E3CB8A" offset=".156"/><stop stop-color="#E4CD8D" offset=".16"/><stop stop-color="#E5CF8F" offset=".164"/><stop stop-color="#E7D191" offset=".168"/><stop stop-color="#E8D393" offset=".172"/><stop stop-color="#E9D696" offset=".176"/><stop stop-color="#EBD898" offset=".18"/><stop stop-color="#ECDA9A" offset=".184"/><stop stop-color="#EEDC9C" offset=".188"/><stop stop-color="#EFDE9F" offset=".191"/><stop stop-color="#F0E0A1" offset=".195"/><stop stop-color="#F2E2A3" offset=".199"/><stop stop-color="#F3E4A5" offset=".203"/><stop stop-color="#F4E6A8" offset=".207"/><stop stop-color="#F6E8AA" offset=".211"/><stop stop-color="#F7EAAC" offset=".215"/><stop stop-color="#F8ECAE" offset=".219"/><stop stop-color="#FAEEB1" offset=".223"/><stop stop-color="#FBF0B3" offset=".227"/><stop stop-color="#FCF1B4" offset=".23"/><stop stop-color="#FDF3B5" offset=".234"/><stop stop-color="#FCF2B4" offset=".238"/><stop stop-color="#FCF1B3" offset=".242"/><stop stop-color="#FBF0B1" offset=".246"/><stop stop-color="#FBEFB0" offset=".25"/><stop stop-color="#FAEFAF" offset=".254"/><stop stop-color="#FAEEAD" offset=".258"/><stop stop-color="#F9EDAC" offset=".262"/><stop stop-color="#F9ECAB" offset=".266"/><stop stop-color="#F8EBA9" offset=".27"/><stop stop-color="#F8EBA8" offset=".273"/><stop stop-color="#F7EAA7" offset=".277"/><stop stop-color="#F7E9A5" offset=".281"/><stop stop-color="#F6E8A4" offset=".285"/><stop stop-color="#F6E8A3" offset=".289"/><stop stop-color="#F5E7A1" offset=".293"/><stop stop-color="#F5E6A0" offset=".297"/><stop stop-color="#F4E59F" offset=".301"/><stop stop-color="#F4E49D" offset=".305"/><stop stop-color="#F4E49C" offset=".309"/><stop stop-color="#F3E39B" offset=".313"/><stop stop-color="#F3E299" offset=".316"/><stop stop-color="#F2E198" offset=".32"/><stop stop-color="#F2E097" offset=".324"/><stop stop-color="#F1E095" offset=".328"/><stop stop-color="#F1DF94" offset=".332"/><stop stop-color="#F0DE93" offset=".336"/><stop stop-color="#F0DD91" offset=".34"/><stop stop-color="#EFDD90" offset=".344"/><stop stop-color="#EFDC8F" offset=".348"/><stop stop-color="#EEDB8D" offset=".352"/><stop stop-color="#EEDA8C" offset=".355"/><stop stop-color="#EDD98B" offset=".359"/><stop stop-color="#EDD989" offset=".363"/><stop stop-color="#ECD888" offset=".367"/><stop stop-color="#ECD787" offset=".371"/><stop stop-color="#EBD685" offset=".375"/><stop stop-color="#EBD584" offset=".379"/><stop stop-color="#EAD583" offset=".383"/><stop stop-color="#EAD481" offset=".387"/><stop stop-color="#E9D380" offset=".391"/><stop stop-color="#E9D27F" offset=".395"/><stop stop-color="#E9D27D" offset=".398"/><stop stop-color="#E8D17C" offset=".402"/><stop stop-color="#E8D07B" offset=".406"/><stop stop-color="#E7CF79" offset=".41"/><stop stop-color="#E7CE78" offset=".414"/><stop stop-color="#E6CE77" offset=".418"/><stop stop-color="#E6CD75" offset=".422"/><stop stop-color="#E5CC74" offset=".426"/><stop stop-color="#E5CB73" offset=".43"/><stop stop-color="#E4CA71" offset=".434"/><stop stop-color="#E4CA70" offset=".438"/><stop stop-color="#E3C96F" offset=".441"/><stop stop-color="#E3C86D" offset=".445"/><stop stop-color="#E2C76C" offset=".449"/><stop stop-color="#E2C76B" offset=".453"/><stop stop-color="#E1C669" offset=".457"/><stop stop-color="#E1C568" offset=".461"/><stop stop-color="#E0C467" offset=".465"/><stop stop-color="#E0C365" offset=".469"/><stop stop-color="#DFC364" offset=".473"/><stop stop-color="#DFC263" offset=".477"/><stop stop-color="#DEC161" offset=".48"/><stop stop-color="#DEC060" offset=".484"/><stop stop-color="#DDBF5F" offset=".488"/><stop stop-color="#DDBF5D" offset=".492"/><stop stop-color="#DDBE5C" offset=".496"/><stop stop-color="#DCBD5B" offset=".5"/><stop stop-color="#DCBC59" offset=".504"/><stop stop-color="#DBBC58" offset=".508"/><stop stop-color="#DBBB57" offset=".512"/><stop stop-color="#DABA55" offset=".516"/><stop stop-color="#DAB954" offset=".52"/><stop stop-color="#D9B853" offset=".523"/><stop stop-color="#DAB954" offset=".527"/><stop stop-color="#DABA55" offset=".531"/><stop stop-color="#DABA56" offset=".535"/><stop stop-color="#DBBB58" offset=".539"/><stop stop-color="#DBBC59" offset=".543"/><stop stop-color="#DCBD5B" offset=".547"/><stop stop-color="#DDBE5C" offset=".551"/><stop stop-color="#DDBF5E" offset=".555"/><stop stop-color="#DEC05F" offset=".559"/><stop stop-color="#DEC161" offset=".563"/><stop stop-color="#DFC162" offset=".566"/><stop stop-color="#DFC264" offset=".57"/><stop stop-color="#E0C365" offset=".574"/><stop stop-color="#E0C467" offset=".578"/><stop stop-color="#E1C568" offset=".582"/><stop stop-color="#E1C66A" offset=".586"/><stop stop-color="#E2C76B" offset=".59"/><stop stop-color="#E2C86D" offset=".594"/><stop stop-color="#E3C86E" offset=".598"/><stop stop-color="#E3C970" offset=".602"/><stop stop-color="#E4CA71" offset=".605"/><stop stop-color="#E5CB73" offset=".609"/><stop stop-color="#E5CC74" offset=".613"/><stop stop-color="#E6CD76" offset=".617"/><stop stop-color="#E6CE77" offset=".621"/><stop stop-color="#E7CE79" offset=".625"/><stop stop-color="#E7CF7A" offset=".629"/><stop stop-color="#E8D07C" offset=".633"/><stop stop-color="#E8D17D" offset=".637"/><stop stop-color="#E9D27F" offset=".641"/><stop stop-color="#E9D380" offset=".645"/><stop stop-color="#EAD482" offset=".648"/><stop stop-color="#EAD583" offset=".652"/><stop stop-color="#EBD585" offset=".656"/><stop stop-color="#EBD686" offset=".66"/><stop stop-color="#ECD788" offset=".664"/><stop stop-color="#ECD889" offset=".668"/><stop stop-color="#EDD98B" offset=".672"/><stop stop-color="#EEDA8C" offset=".676"/><stop stop-color="#EEDB8E" offset=".68"/><stop stop-color="#EFDC8F" offset=".684"/><stop stop-color="#EFDC91" offset=".688"/><stop stop-color="#F0DD92" offset=".691"/><stop stop-color="#F0DE93" offset=".695"/><stop stop-color="#F1DF95" offset=".699"/><stop stop-color="#F1E096" offset=".703"/><stop stop-color="#F2E097" offset=".707"/><stop stop-color="#F2E199" offset=".711"/><stop stop-color="#F3E29A" offset=".715"/><stop stop-color="#F3E39B" offset=".719"/><stop stop-color="#F4E49D" offset=".723"/><stop stop-color="#F4E49E" offset=".727"/><stop stop-color="#F5E59F" offset=".73"/><stop stop-color="#F5E6A1" offset=".734"/><stop stop-color="#F6E7A2" offset=".738"/><stop stop-color="#F6E8A3" offset=".742"/><stop stop-color="#F7E8A5" offset=".746"/><stop stop-color="#F7E9A6" offset=".75"/><stop stop-color="#F8EAA7" offset=".754"/><stop stop-color="#F8EBA9" offset=".758"/><stop stop-color="#F8ECAA" offset=".762"/><stop stop-color="#F9EDAB" offset=".766"/><stop stop-color="#F9EDAD" offset=".77"/><stop stop-color="#FAEEAE" offset=".773"/><stop stop-color="#FAEFAF" offset=".777"/><stop stop-color="#FBF0B1" offset=".781"/><stop stop-color="#FBF1B2" offset=".785"/><stop stop-color="#FCF1B3" offset=".789"/><stop stop-color="#FCF2B5" offset=".793"/><stop stop-color="#FDF3B6" offset=".797"/><stop stop-color="#FBF0B4" offset=".801"/><stop stop-color="#FAEEB1" offset=".805"/><stop stop-color="#F8EBAF" offset=".809"/><stop stop-color="#F6E9AD" offset=".813"/><stop stop-color="#F5E6AA" offset=".816"/><stop stop-color="#F3E4A8" offset=".82"/><stop stop-color="#F1E1A5" offset=".824"/><stop stop-color="#F0DEA3" offset=".828"/><stop stop-color="#EEDCA1" offset=".832"/><stop stop-color="#ECD99E" offset=".836"/><stop stop-color="#EBD79C" offset=".84"/><stop stop-color="#E9D499" offset=".844"/><stop stop-color="#E7D197" offset=".848"/><stop stop-color="#E6CF95" offset=".852"/><stop stop-color="#E4CC92" offset=".855"/><stop stop-color="#E3CA90" offset=".859"/><stop stop-color="#E2C88E" offset=".863"/><stop stop-color="#E0C68C" offset=".867"/><stop stop-color="#DFC48A" offset=".871"/><stop stop-color="#DEC289" offset=".875"/><stop stop-color="#DDC087" offset=".879"/><stop stop-color="#DBBE85" offset=".883"/><stop stop-color="#DABC83" offset=".887"/><stop stop-color="#D9B981" offset=".891"/><stop stop-color="#D8B77F" offset=".895"/><stop stop-color="#D7B57D" offset=".898"/><stop stop-color="#D5B37B" offset=".902"/><stop stop-color="#D4B179" offset=".906"/><stop stop-color="#D3AF77" offset=".91"/><stop stop-color="#D2AD75" offset=".914"/><stop stop-color="#D1AC74" offset=".918"/><stop stop-color="#D0AA73" offset=".922"/><stop stop-color="#CFA971" offset=".926"/><stop stop-color="#CEA870" offset=".93"/><stop stop-color="#CDA66F" offset=".934"/><stop stop-color="#CCA56D" offset=".938"/><stop stop-color="#CBA36C" offset=".941"/><stop stop-color="#CAA26B" offset=".945"/><stop stop-color="#C9A069" offset=".949"/><stop stop-color="#C89F68" offset=".953"/><stop stop-color="#C79E66" offset=".957"/><stop stop-color="#C69C65" offset=".961"/><stop stop-color="#C59B64" offset=".965"/><stop stop-color="#C59A64" offset=".969"/><stop stop-color="#C59A63" offset=".973"/><stop stop-color="#C49962" offset=".977"/><stop stop-color="#C49862" offset=".98"/><stop stop-color="#C39761" offset=".984"/><stop stop-color="#C39660" offset=".988"/><stop stop-color="#C29660" offset=".992"/><stop stop-color="#C2955F" offset="1"/></linearGradient><linearGradient x1="-77.812" gradientTransform="matrix(.0244 -.05053 .05098 .02462 -4.181 21.013)" y1="256" x2="598.177" gradientUnits="userSpaceOnUse" y2="256" id="n"><stop stop-color="#B3833B" offset="0"/><stop stop-color="#B3833B" offset=".125"/><stop stop-color="#B5863F" offset=".129"/><stop stop-color="#B78942" offset=".133"/><stop stop-color="#B98C45" offset=".137"/><stop stop-color="#BB8F48" offset=".141"/><stop stop-color="#BC914B" offset=".145"/><stop stop-color="#BE944E" offset=".148"/><stop stop-color="#C09751" offset=".152"/><stop stop-color="#C29954" offset=".156"/><stop stop-color="#C49C57" offset=".16"/><stop stop-color="#C59F5A" offset=".164"/><stop stop-color="#C7A25D" offset=".168"/><stop stop-color="#C9A45F" offset=".172"/><stop stop-color="#CBA762" offset=".176"/><stop stop-color="#CDAA65" offset=".18"/><stop stop-color="#CEAC68" offset=".184"/><stop stop-color="#D0AF6B" offset=".188"/><stop stop-color="#D2B26E" offset=".191"/><stop stop-color="#D4B571" offset=".195"/><stop stop-color="#D6B774" offset=".199"/><stop stop-color="#D7BA77" offset=".203"/><stop stop-color="#D9BD7A" offset=".207"/><stop stop-color="#DBBF7D" offset=".211"/><stop stop-color="#DDC280" offset=".215"/><stop stop-color="#DEC583" offset=".219"/><stop stop-color="#E0C886" offset=".223"/><stop stop-color="#E2CA89" offset=".227"/><stop stop-color="#E4CD8C" offset=".23"/><stop stop-color="#E6D08F" offset=".234"/><stop stop-color="#E7D292" offset=".238"/><stop stop-color="#E9D595" offset=".242"/><stop stop-color="#EBD898" offset=".246"/><stop stop-color="#EDDB9B" offset=".25"/><stop stop-color="#EFDD9E" offset=".254"/><stop stop-color="#F0E0A1" offset=".258"/><stop stop-color="#F2E3A4" offset=".262"/><stop stop-color="#F4E5A7" offset=".266"/><stop stop-color="#F6E8AA" offset=".27"/><stop stop-color="#F8EBAD" offset=".273"/><stop stop-color="#F9EEB0" offset=".277"/><stop stop-color="#FBF0B3" offset=".281"/><stop stop-color="#FCF1B4" offset=".285"/><stop stop-color="#FCF2B4" offset=".289"/><stop stop-color="#FCF1B3" offset=".293"/><stop stop-color="#FBF0B1" offset=".297"/><stop stop-color="#FAEFAF" offset=".301"/><stop stop-color="#FAEEAD" offset=".305"/><stop stop-color="#F9EDAC" offset=".309"/><stop stop-color="#F9ECAA" offset=".313"/><stop stop-color="#F8EBA8" offset=".316"/><stop stop-color="#F7EAA6" offset=".32"/><stop stop-color="#F7E9A5" offset=".324"/><stop stop-color="#F6E8A3" offset=".328"/><stop stop-color="#F5E7A1" offset=".332"/><stop stop-color="#F5E69F" offset=".336"/><stop stop-color="#F4E59D" offset=".34"/><stop stop-color="#F3E39C" offset=".344"/><stop stop-color="#F3E29A" offset=".348"/><stop stop-color="#F2E198" offset=".352"/><stop stop-color="#F2E096" offset=".355"/><stop stop-color="#F1DF95" offset=".359"/><stop stop-color="#F0DE93" offset=".363"/><stop stop-color="#F0DD91" offset=".367"/><stop stop-color="#EFDC8F" offset=".371"/><stop stop-color="#EEDB8E" offset=".375"/><stop stop-color="#EEDA8C" offset=".379"/><stop stop-color="#EDD98A" offset=".383"/><stop stop-color="#EDD888" offset=".387"/><stop stop-color="#ECD787" offset=".391"/><stop stop-color="#EBD685" offset=".395"/><stop stop-color="#EBD583" offset=".398"/><stop stop-color="#EAD481" offset=".402"/><stop stop-color="#E9D380" offset=".406"/><stop stop-color="#E9D27E" offset=".41"/><stop stop-color="#E8D17C" offset=".414"/><stop stop-color="#E7D07A" offset=".418"/><stop stop-color="#E7CF79" offset=".422"/><stop stop-color="#E6CE77" offset=".426"/><stop stop-color="#E6CD75" offset=".43"/><stop stop-color="#E5CC73" offset=".434"/><stop stop-color="#E4CB71" offset=".438"/><stop stop-color="#E4CA70" offset=".441"/><stop stop-color="#E3C96E" offset=".445"/><stop stop-color="#E2C76C" offset=".449"/><stop stop-color="#E2C66A" offset=".453"/><stop stop-color="#E1C569" offset=".457"/><stop stop-color="#E0C467" offset=".461"/><stop stop-color="#E0C365" offset=".465"/><stop stop-color="#DFC263" offset=".469"/><stop stop-color="#DFC162" offset=".473"/><stop stop-color="#DEC060" offset=".477"/><stop stop-color="#DDBF5E" offset=".48"/><stop stop-color="#DDBE5C" offset=".484"/><stop stop-color="#DCBD5B" offset=".488"/><stop stop-color="#DBBC59" offset=".492"/><stop stop-color="#DBBB57" offset=".496"/><stop stop-color="#DABA55" offset=".5"/><stop stop-color="#DAB954" offset=".504"/><stop stop-color="#D9B852" offset=".508"/><stop stop-color="#DAB954" offset=".512"/><stop stop-color="#DBBB56" offset=".516"/><stop stop-color="#DBBC58" offset=".52"/><stop stop-color="#DCBD5A" offset=".523"/><stop stop-color="#DDBE5C" offset=".527"/><stop stop-color="#DDBF5E" offset=".531"/><stop stop-color="#DEC060" offset=".535"/><stop stop-color="#DFC262" offset=".539"/><stop stop-color="#DFC364" offset=".543"/><stop stop-color="#E0C466" offset=".547"/><stop stop-color="#E1C568" offset=".551"/><stop stop-color="#E2C66A" offset=".555"/><stop stop-color="#E2C76C" offset=".559"/><stop stop-color="#E3C86E" offset=".563"/><stop stop-color="#E4CA70" offset=".566"/><stop stop-color="#E4CB72" offset=".57"/><stop stop-color="#E5CC74" offset=".574"/><stop stop-color="#E6CD76" offset=".578"/><stop stop-color="#E6CE78" offset=".582"/><stop stop-color="#E7CF7A" offset=".586"/><stop stop-color="#E8D07C" offset=".59"/><stop stop-color="#E9D27E" offset=".594"/><stop stop-color="#E9D380" offset=".598"/><stop stop-color="#EAD482" offset=".602"/><stop stop-color="#EBD584" offset=".605"/><stop stop-color="#EBD686" offset=".609"/><stop stop-color="#ECD788" offset=".613"/><stop stop-color="#EDD98A" offset=".617"/><stop stop-color="#EDDA8C" offset=".621"/><stop stop-color="#EEDB8E" offset=".625"/><stop stop-color="#EFDC90" offset=".629"/><stop stop-color="#F0DD92" offset=".633"/><stop stop-color="#F0DE93" offset=".637"/><stop stop-color="#F1DF95" offset=".641"/><stop stop-color="#F1E097" offset=".645"/><stop stop-color="#F2E199" offset=".648"/><stop stop-color="#F3E29B" offset=".652"/><stop stop-color="#F3E39C" offset=".656"/><stop stop-color="#F4E49E" offset=".66"/><stop stop-color="#F5E6A0" offset=".664"/><stop stop-color="#F5E7A2" offset=".668"/><stop stop-color="#F6E8A3" offset=".672"/><stop stop-color="#F7E9A5" offset=".676"/><stop stop-color="#F7EAA7" offset=".68"/><stop stop-color="#F8EBA9" offset=".684"/><stop stop-color="#F9ECAA" offset=".688"/><stop stop-color="#F9EDAC" offset=".691"/><stop stop-color="#FAEEAE" offset=".695"/><stop stop-color="#FBEFB0" offset=".699"/><stop stop-color="#FBF0B1" offset=".703"/><stop stop-color="#FCF1B3" offset=".707"/><stop stop-color="#FDF2B5" offset=".711"/><stop stop-color="#FBF0B3" offset=".715"/><stop stop-color="#FAEEB2" offset=".719"/><stop stop-color="#F8EBAF" offset=".723"/><stop stop-color="#F6E8AB" offset=".727"/><stop stop-color="#F3E4A8" offset=".73"/><stop stop-color="#F1E1A5" offset=".734"/><stop stop-color="#EFDDA2" offset=".738"/><stop stop-color="#EDDA9F" offset=".742"/><stop stop-color="#EBD69C" offset=".746"/><stop stop-color="#E8D398" offset=".75"/><stop stop-color="#E6CF95" offset=".754"/><stop stop-color="#E4CC92" offset=".758"/><stop stop-color="#E2C990" offset=".762"/><stop stop-color="#E1C78D" offset=".766"/><stop stop-color="#DFC48A" offset=".77"/><stop stop-color="#DDC188" offset=".773"/><stop stop-color="#DCBE85" offset=".777"/><stop stop-color="#DABC83" offset=".781"/><stop stop-color="#D9B980" offset=".785"/><stop stop-color="#D7B67E" offset=".789"/><stop stop-color="#D5B37B" offset=".793"/><stop stop-color="#D4B179" offset=".797"/><stop stop-color="#D2AE76" offset=".801"/><stop stop-color="#D1AC74" offset=".805"/><stop stop-color="#D0AA72" offset=".809"/><stop stop-color="#CEA871" offset=".813"/><stop stop-color="#CDA66F" offset=".816"/><stop stop-color="#CCA46D" offset=".82"/><stop stop-color="#CAA36B" offset=".824"/><stop stop-color="#C9A169" offset=".828"/><stop stop-color="#C89F68" offset=".832"/><stop stop-color="#C69D66" offset=".836"/><stop stop-color="#C69C65" offset=".84"/><stop stop-color="#C59A64" offset=".844"/><stop stop-color="#C49963" offset=".848"/><stop stop-color="#C49862" offset=".852"/><stop stop-color="#C39761" offset=".855"/><stop stop-color="#C39660" offset=".859"/><stop stop-color="#C29660" offset=".863"/><stop stop-color="#C2955F" offset=".867"/><stop stop-color="#C2955F" offset=".875"/><stop stop-color="#C2955F" offset="1"/></linearGradient></defs><g clip-path="url(#a)"><g clip-path="url(#b)"><path fill="#053729" d="M.813.117h28.37v28.371H.814zm0 0"/></g></g><g clip-path="url(#c)"><g clip-path="url(#d)"><g clip-path="url(#e)"><g clip-path="url(#f)"><g clip-path="url(#g)"><path fill="url(#h)" d="m.516 29.477 29.125-.825-.836-29.457L-.32.023zm0 0"/></g></g></g></g></g><g clip-path="url(#i)"><g clip-path="url(#j)"><g clip-path="url(#k)"><g clip-path="url(#l)"><g clip-path="url(#m)"><path fill="url(#n)" d="m-9.719 23.188 33.914 16.378L40.691 5.41 6.781-10.973zm0 0"/></g></g></g></g></g><g clip-path="url(#o)"><g clip-path="url(#p)"><g clip-path="url(#q)"><path fill="#f89b06" d="M15.031 4.957c-.172.324-.304.719-.203 1.2.152.714.738 1.73 1.34 2.202.598.477.887 1.137.887 1.137s.375-.273-.047-1.375C16.586 7.02 15.46 6.31 15.5 5.781c0 0 .07.32.531.696.457.375.7.687.895 1.117 0 0 .758-.223 1.047-.282.289-.058.715-.214.882-.066.168.152.063.574.067.613.004.036.375-.613.238-.906-.133-.297-.035-.406-.277-.46-.246-.056.215-.165.215-.165s.175-.254.078-.473c-.067-.14-.09-.246-.223-.304a.865.865 0 0 0-.25-.164c-.469-.219-.816-.434-1.281-.582-.465-.149-1.004-.375-1.18-.54-.066-.062-.187-.093-.324-.09 0 0-3.805-3.038-6.68-.394 0 0 2.715-1.652 5.793 1.176"/></g></g></g><g clip-path="url(#r)"><g clip-path="url(#s)"><g clip-path="url(#t)"><path fill="#f89b06" d="M14.828 5.035c-.902-.816-1.77-1.25-2.543-1.457-1.008.09-2.05.508-2.84 1.59 0 0 2.117-1.953 5.383-.133"/></g></g></g><g clip-path="url(#u)"><g clip-path="url(#v)"><g clip-path="url(#w)"><g clip-path="url(#x)"><g clip-path="url(#y)"><path fill="#f89b06" d="M20.137 10.512a7.627 7.627 0 0 1-1.82.945.749.749 0 0 1-.993-.621v-.012s-.168-1.27-1.02-2.062c-.706-.657-1.964-1.996-1.527-3.696 0 0-.43.54-.578 2.262-.113 1.297-1.414 2.934-2.066 3.68a7.605 7.605 0 0 1-2.668-2.36A7.586 7.586 0 0 1 8.09 4.54 7.415 7.415 0 0 0 9.336 9.91c2.348 3.371 7.023 4.195 10.398 1.832a7.441 7.441 0 0 0 2.957-4.27 7.653 7.653 0 0 1-2.554 3.04"/></g></g></g></g></g><path d="M3.742 19.655h2.11v-.082c-.15-.156-.286-.785-.286-1.844v-1.148h.543c.219 0 .434.21.457.496h.094V15.91h-.094c-.023.285-.238.488-.457.488h-.543v-1.343h.54c.593 0 1.132.379 1.151 1.28h.11l.086-1.429H3.742v.082c.148.157.285.785.285 1.844v.898c0 1.059-.137 1.688-.285 1.844zM7.711 19.655h3.864l-.118-2.21h-.117c-.027 1.3-.492 2.034-1.273 2.034h-.535v-2.648c0-1.059.132-1.687.285-1.844v-.082H7.71v.082c.149.157.285.785.285 1.844v.898c0 1.059-.136 1.688-.285 1.844zM11.764 19.655h.765v-.082c-.11-.156-.054-.785.258-1.844l.238-.746c.137-.015.332.067.352.18a.49.49 0 0 0-.055.23c0 .133.043.301.145.301.101 0 .14-.168.14-.3a.49.49 0 0 0-.054-.231c.02-.113.218-.195.355-.18l.234.746c.313 1.059.368 1.688.258 1.844v.082h2.117v-.082c-.207-.156-.527-.785-.84-1.844l-.296-.898c-.313-1.059-.36-1.687-.258-1.844v-.082h-1.969v.082c.102.157.055.785-.258 1.844l-.3.898c-.313 1.059-.637 1.688-.832 1.844zm1.668-2.578a.418.418 0 0 0-.325-.379l.317-1.012h.082l.32 1.012a.422.422 0 0 0-.332.38zM16.667 19.655h.762v-.082c-.129-.156-.148-.785.031-1.844l.18-1.082h.078l.258 1.082c.227 1.059.207 1.688.082 1.844v.082h1.766v-.082c-.118-.156-.118-.785.082-1.844l.25-1.082h.082l.191 1.082c.203 1.051.16 1.688.031 1.844v.082h2.114v-.082c-.184-.156-.43-.785-.621-1.844l-.149-.898c-.187-1.059-.16-1.687-.039-1.844v-.082h-1.75v.082c.121.157.129.785-.082 1.844l-.273 1.148h-.082l-.27-1.148c-.211-1.059-.195-1.687-.082-1.844v-.082h-1.75v.082c.129.157.148.785-.035 1.844l-.156.898c-.184 1.059-.426 1.688-.618 1.844zM25.158 19.749c1.293 0 2.13-.727 2.13-1.684 0-.703-.5-1.191-1.173-1.191-.734 0-1.175.445-1.175 1.062 0 .442.332.856.808.856.14 0 .278-.04.352-.102v-.066c-.164.047-.324-.063-.324-.266 0-.214.203-.394.492-.394.32 0 .594.21.594.57 0 .485-.368.79-1.02.79-.863 0-1.539-.598-1.539-1.419a1.32 1.32 0 0 1 1.172-1.308c.09.039.21.066.305.066.125 0 .23-.055.23-.184 0-.117-.105-.168-.23-.168a.88.88 0 0 0-.48.133c-.388-.082-.665-.351-.665-.726 0-.442.324-.75.855-.75.325 0 .547.168.547.398a.287.287 0 0 1-.289.293c-.164 0-.265-.082-.246-.219l-.086-.007a.32.32 0 0 0-.054.199c0 .285.214.527.582.527.359 0 .625-.234.625-.582 0-.476-.563-.766-1.38-.766-.984 0-1.695.372-1.695.895 0 .46.387.766 1.196.793v.09c-1.344.012-1.93.703-1.93 1.52 0 .949 1.02 1.64 2.398 1.64zm0 0" fill="#f89b06"/></svg>